# xmcd
#
# Track frame offsets: 
#        150
#        17035
#        33772
#        48997
#        61955
#        76010
#        85913
#        101294
#
# Disc length: 1547 seconds
#
# Revision: 0
# Processed by: cddbd v1.5.2PL0 Copyright (c) Steve Scherf et al.
# Submitted via: ExactAudioCopy v1.0b3
#
DISCID=4d060908
DTITLE=Rench - Worn Down Low
DYEAR=2009
DGENRE=Country
TTITLE0=High Friends In Places
TTITLE1=Staying Clean
TTITLE2=Satan's Jewel Crown
TTITLE3=Morricone Close-Up
TTITLE4=How My Garden Grows
TTITLE5=God Damn Little Man
TTITLE6=Detainee
TTITLE7=Up From Low
EXTD=
EXTT0=
EXTT1=
EXTT2=
EXTT3=
EXTT4=
EXTT5=
EXTT6=
EXTT7=
PLAYORDER=
